<svg viewBox="0 0 24 24" fill="none" xmlns="http://www.w3.org/2000/svg"><g id="SVGRepo_bgCarrier" stroke-width="0"></g><g id="SVGRepo_tracerCarrier" stroke-linecap="round" stroke-linejoin="round"></g><g id="SVGRepo_iconCarrier"> <path fill-rule="evenodd" clip-rule="evenodd" d="M16.5 11.3308C16.5 13.1552 14.7029 15 12 15C9.29713 15 7.5 13.1552 7.5 11.3308V7.5H16.5V11.3308ZM17.9502 12C17.7751 13.1667 17.1485 14.2115 16.2263 15H18V16.5L12 16.5L6 16.5V15H7.77371C6.67832 14.0635 6 12.7654 6 11.3308V6H18C19.6569 6 21 7.34315 21 9C21 10.6569 19.6569 12 18 12H17.9502ZM18 7.5V10.5C18.8284 10.5 19.5 9.82843 19.5 9C19.5 8.17157 18.8284 7.5 18 7.5ZM7.5 18.75L7.5 17.25L16.5 17.25V18.75L7.5 18.75Z" fill="#e3e3e3" data-darkreader-inline-fill="" style="--darkreader-inline-fill: #060234;"></path> </g></svg>